<svg t="1703161696372" class="icon" viewBox="0 0 1024 1024" version="1.1" xmlns="http://www.w3.org/2000/svg" p-id="6610" width="16" height="16"><path d="M512 1002.666667C241.450667 1002.666667 21.333333 782.549333 21.333333 512S241.450667 21.333333 512 21.333333 1002.666667 241.450667 1002.666667 512 782.549333 1002.666667 512 1002.666667z m0-938.666667C264.96 64 64 264.96 64 512S264.96 960 512 960 960 759.04 960 512 759.04 64 512 64z" p-id="6611"></path><path d="M512 704c-105.856 0-192-86.144-192-192S406.144 320 512 320s192 86.144 192 192-86.144 192-192 192z m0-341.333333c-82.346667 0-149.333333 66.986667-149.333333 149.333333s66.986667 149.333333 149.333333 149.333333 149.333333-66.986667 149.333333-149.333333-66.986667-149.333333-149.333333-149.333333z" p-id="6612"></path><path d="M341.333333 533.333333H42.666667a21.333333 21.333333 0 0 1 0-42.666666h298.666666a21.333333 21.333333 0 0 1 0 42.666666zM981.333333 533.333333h-298.666666a21.333333 21.333333 0 0 1 0-42.666666h298.666666a21.333333 21.333333 0 0 1 0 42.666666zM512 618.666667c-58.794667 0-106.666667-47.872-106.666667-106.666667s47.872-106.666667 106.666667-106.666667 106.666667 47.872 106.666667 106.666667-47.872 106.666667-106.666667 106.666667z m0-170.666667c-35.285333 0-64 28.714667-64 64s28.714667 64 64 64 64-28.714667 64-64-28.714667-64-64-64z" p-id="6613"></path></svg>