<svg t="1695363087933" class="icon" viewBox="0 0 1024 1024" version="1.1" xmlns="http://www.w3.org/2000/svg" p-id="16053" width="16" height="16"><path d="M144.41428584 62h735.17142832c28.67142832 0 39.02142833 2.95714248 49.5 8.61428584 10.47857168 5.59285752 18.70714248 13.82142832 24.3 24.3 5.65714248 10.47857168 8.61428584 20.82857167 8.61428584 49.5v606.6c0 28.67142832-2.95714248 39.02142833-8.61428584 49.5a58.43571416 58.43571416 0 0 1-24.3 24.3c-10.47857168 5.65714248-20.82857167 8.61428584-49.5 8.61428584H144.41428584c-28.67142832 0-39.02142833-2.95714248-49.5-8.61428584a58.43571416 58.43571416 0 0 1-24.3-24.3c-5.65714248-10.47857168-8.61428584-20.82857167-8.61428584-49.5V144.41428584C62 115.74285752 64.95714248 105.39285752 70.61428584 94.91428584A58.43571416 58.43571416 0 0 1 94.91428584 70.61428584C105.39285752 64.95714248 115.74285752 62 144.41428584 62zM319.14285752 383.42857168a64.28571416 64.28571416 0 1 0 0-128.5714292 64.28571416 64.28571416 0 0 0 0 128.5714292z m385.71428496 0a64.28571416 64.28571416 0 1 0 0-128.5714292 64.28571416 64.28571416 0 0 0 0 128.5714292zM287 500.94285752c0 92.18571416 102.85714248 160.71428584 225 160.71428496s225-68.52857168 225-160.71428496a32.14285752 32.14285752 0 0 0-64.28571416 0c0 49.88571416-69.87857168 96.42857168-160.71428584 96.42857081s-160.71428584-46.54285752-160.71428584-96.42857081a32.14285752 32.14285752 0 0 0-64.28571416 0zM158.42857168 962a32.14285752 32.14285752 0 0 1 0-64.28571416h707.14285665a32.14285752 32.14285752 0 0 1 0 64.28571416h-707.14285665z" p-id="16054"></path></svg>