<svg t="1695543958135" class="icon" viewBox="0 0 1426 1024" version="1.1" xmlns="http://www.w3.org/2000/svg" p-id="10478" width="16" height="16"><path d="M985.6 1022.976c-14.848 0-31.744-4.096-47.104-12.288L716.288 899.584l-223.744 111.104c-14.336 7.68-30.208 11.776-47.104 11.776-21.504 0-42.496-6.656-59.392-19.456-31.232-23.552-47.104-64-39.936-101.376l45.568-237.056-175.616-163.328c-27.136-27.648-37.376-67.072-27.136-104.448l0.512-1.024c12.8-38.4 44.544-65.024 82.944-70.144l243.712-44.544L625.152 58.88C642.56 23.552 678.4 1.024 716.288 1.024c39.424 0 76.288 23.552 91.648 58.368l109.056 221.696 243.712 42.496c38.4 5.632 70.656 33.28 81.408 71.168 12.288 36.864 2.048 77.312-25.6 104.96l-0.512 0.512-174.592 164.864 44.032 237.568c7.168 37.888-8.192 76.288-39.424 100.352-17.92 12.8-38.912 19.968-60.416 19.968z" p-id="10479"></path></svg>