<svg t="1695193805575" class="icon" viewBox="0 0 1024 1024" version="1.1" xmlns="http://www.w3.org/2000/svg" p-id="14713" width="16" height="16"><path d="M743.424 964.608c-14.336 0-26.624-4.096-38.912-10.24l-188.416-104.448-188.416 104.448c-26.624 14.336-59.392 12.288-86.016-4.096-26.624-18.432-38.912-51.2-34.816-83.968l36.864-221.184v-2.048l-153.6-155.648c-22.528-22.528-30.72-55.296-20.48-86.016s34.816-51.2 65.536-55.296L348.16 311.296l94.208-200.704c14.336-28.672 43.008-47.104 73.728-47.104 32.768 0 59.392 18.432 73.728 47.104l94.208 200.704 210.944 32.768c30.72 4.096 55.296 26.624 65.536 55.296 10.24 30.72 2.048 63.488-20.48 86.016l-153.6 155.648v2.048l36.864 221.184c6.144 32.768-8.192 63.488-34.816 83.968-12.288 10.24-28.672 16.384-45.056 16.384z m-227.328-819.2l-94.208 200.704c-12.288 24.576-34.816 43.008-61.44 47.104L147.456 423.936v4.096l153.6 155.648c18.432 18.432 26.624 47.104 22.528 73.728L286.72 878.592v2.048l188.416-104.448c24.576-14.336 53.248-14.336 77.824 0l188.416 104.448v-2.048l-36.864-221.184c-4.096-26.624 4.096-53.248 22.528-73.728l153.6-155.648v-2.048-2.048l-210.944-32.768c-26.624-4.096-49.152-20.48-61.44-47.104l-92.16-198.656z"  p-id="14714"></path><path d="M516.096 698.368c-67.584 0-122.88-55.296-122.88-122.88 0-22.528 18.432-40.96 40.96-40.96s40.96 18.432 40.96 40.96 18.432 40.96 40.96 40.96 40.96-18.432 40.96-40.96 18.432-40.96 40.96-40.96 40.96 18.432 40.96 40.96c0 67.584-55.296 122.88-122.88 122.88z" p-id="14715"></path></svg>