<svg t="1695362715043" class="icon" viewBox="0 0 1024 1024" version="1.1" xmlns="http://www.w3.org/2000/svg" p-id="7475" width="16" height="16"><path d="M716.8 170.6496c17.1008 0 31.3344 12.6464 33.792 29.0816l0.3072 5.0688v238.848h102.4c17.152 0 31.3344 12.6464 33.792 29.1328l0.3584 5.0176v273.0496a34.1504 34.1504 0 0 1-34.1504 34.1504h-71.2192l-41.1648 41.216a34.1504 34.1504 0 0 1-44.032 3.584l-4.2496-3.584-41.1648-41.216H477.8496a34.1504 34.1504 0 0 1-33.792-29.0816l-0.3584-5.0688v-102.4l-39.7824 0.0512-127.488 95.5904a34.2016 34.2016 0 0 1-53.1456-17.3568l-1.024-4.8128-0.4096-5.12v-68.3008h-51.2a34.1504 34.1504 0 0 1-32.6656-24.2176l-1.0752-4.8128L136.4992 614.4V204.8c0-17.152 12.6464-31.3344 29.0816-33.792l5.0688-0.3584H716.8z m102.3488 341.248h-68.2496V614.4a34.1504 34.1504 0 0 1-29.0816 33.792l-5.0176 0.3584-204.9024-0.1024 0.0512 68.2496h153.6c7.2704 0 14.2848 2.3552 20.0704 6.5536l4.096 3.4816 27.0848 27.0336 27.0336-27.0336c5.12-5.12 11.7248-8.448 18.7904-9.5744l5.376-0.4096 51.1488-0.0512v-204.8zM375.4496 443.648h-102.4l-5.0688 0.4096a34.1504 34.1504 0 0 0 0 67.4816l5.0688 0.4096h102.4l5.0688-0.4096a34.1504 34.1504 0 0 0-5.0688-67.8912z m102.4-136.3968h-204.8l-5.0688 0.4096a34.1504 34.1504 0 0 0 0 67.4816l5.0688 0.4096h204.8l5.0688-0.4096a34.1504 34.1504 0 0 0-5.0688-67.8912z" p-id="7476"></path></svg>