<svg t="1695194765527" class="icon" viewBox="0 0 1024 1024" version="1.1" xmlns="http://www.w3.org/2000/svg" p-id="28148" width="16" height="16"><path d="M599.33184 20.48c-15.39072 0-34.54976 5.2224-56.70912 16.15872l-46.74048 23.22432C415.65696 99.7376 329.92256 187.12064 305.24416 253.98784c-24.67328 67.06176 9.87136 141.96224 76.84096 166.64064a104.35072 104.35072 0 0 0 36.29056 6.38464c57.38496 0 116.224-45.19424 141.6704-114.3808l72.0896-195.66592C654.58688 56.18688 639.68256 20.48 599.33184 20.48z m-24.832 75.19232L502.38976 291.38944c-17.92 48.71168-55.82848 74.17856-84.0192 74.17856a42.83904 42.83904 0 0 1-15.03232-2.5856c-35.32288-13.01504-53.4528-52.39296-40.43264-87.7824 17.2288-46.67904 87.3216-124.04224 160.32256-160.32256l46.73536-23.2192c2.51904-1.24416 4.864-2.32448 7.04512-3.27168-0.7168 2.24768-1.54112 4.66944-2.5088 7.28576zM981.87264 544.50688l-23.22944-46.73536c-39.86432-80.22016-127.25248-165.9648-194.11968-190.6432a127.2064 127.2064 0 0 0-44.61056-8.03328c-52.83328 0-102.76864 32.512-122.03008 84.86912-24.67328 66.96448 23.90528 147.09248 107.89888 177.95584l195.67104 72.09472c19.26656 7.07072 35.90656 10.44992 49.83808 10.44992 46.7456 0 61.2608-38.12864 30.58176-99.95776z m-59.25376 31.82592L727.02464 504.2688c-27.24864-10.01472-50.33984-28.10368-63.40608-49.64352-6.10304-10.07616-15.27808-29.89056-8.08448-49.41824 9.83552-26.73152 35.70176-44.672 64.37888-44.672 7.94112 0 15.73888 1.40288 23.17824 4.1728 46.89408 17.3056 124.25216 87.3984 160.53248 160.40448l23.22944 46.74048c1.2544 2.52416 2.34496 4.86912 3.29728 7.05024a164.84352 164.84352 0 0 1-7.53152-2.57024zM310.84032 458.28096L115.26656 386.28864c-19.25632-7.0656-35.9936-10.45504-49.83296-10.45504-46.83776 0-61.2608 38.12864-30.58688 99.968l23.22432 46.73024c39.87456 80.2304 127.2576 165.96992 194.1248 190.63808a127.80544 127.80544 0 0 0 44.5184 7.94624c52.83328 0 102.77376-32.52736 122.02496-84.87936 24.68352-66.95424-23.90016-147.08224-107.89888-177.95584z m50.24768 156.70784c-9.83552 26.752-35.70176 44.69248-64.37888 44.69248-8.0128 0-15.80032-1.3824-23.14752-4.11136-46.83264-17.28-124.1856-87.36768-160.47104-160.37888l-23.22432-46.72512a159.88224 159.88224 0 0 1-3.29728-7.06048c2.31424 0.72192 4.82304 1.57184 7.53664 2.56512l195.51232 71.97184c27.23328 10.0096 50.3296 28.09856 63.39072 49.6384 6.10816 10.07616 15.27808 29.89056 8.07936 49.408zM634.55744 599.7824a102.22592 102.22592 0 0 0-36.29568-6.58944c-57.38496 0-116.224 45.19424-141.66528 114.38592l-72.09472 195.67616c-22.35904 60.76928-7.45472 96.57344 32.896 96.57344 15.38048 0 34.54464-5.2224 56.70912-16.1536l46.73536-23.22432c80.22528-39.87456 165.95968-127.26784 190.63808-194.12992 24.6784-66.95936-9.96352-141.86496-76.92288-166.53824z m19.2768 145.28512c-17.23904 46.70976-87.34208 124.07296-160.33792 160.35328l-46.73024 23.22432c-2.56512 1.26464-4.95104 2.36544-7.168 3.32288 0.72192-2.30912 1.57184-4.80768 2.56-7.51104l72.08448-195.65056c17.91488-48.7168 55.81824-74.18368 84.01408-74.18368 5.13536 0 9.9072 0.86016 14.592 2.63168 17.46432 6.43584 31.06304 19.05664 38.7584 35.70688 7.69024 16.64 8.47872 35.14368 2.2272 52.10624z" p-id="28149"></path></svg>