<svg t="1696147761949" class="icon" viewBox="0 0 1024 1024" version="1.1" xmlns="http://www.w3.org/2000/svg" p-id="3343" width="16" height="16"><path d="M853.504 451.072c46.592-34.816 85.504-76.288 110.592-123.904 7.168-13.824 1.536-31.232-11.776-37.888-6.656-3.584-14.336-4.608-21.504-2.048-7.168 2.048-13.312 7.168-16.384 14.336-62.464 118.272-223.744 198.144-401.92 198.144S173.568 419.84 110.592 301.568c-3.584-6.656-9.216-11.776-16.384-13.824-7.168-2.048-14.848-1.536-21.504 2.048-14.336 6.656-19.456 24.576-11.776 37.888 25.088 47.616 63.488 90.112 110.592 123.904l-107.52 134.144c-6.656 8.704-8.192 20.48-3.584 30.208 4.608 9.728 14.848 16.384 25.6 16.384 8.704 0 16.384-3.584 22.016-10.752l111.616-138.752c49.664 27.648 106.496 48.128 167.936 60.416l-71.168 155.136c-6.656 14.336 0 31.232 14.336 37.376 4.096 1.536 8.192 3.072 11.776 3.072 10.752 0 20.992-6.144 26.112-16.384l76.8-170.496c21.504 2.048 44.032 4.096 66.56 4.096 18.432 0 35.84-1.536 53.248-3.072l77.312 168.96c3.072 6.656 8.704 12.288 15.872 14.848 7.168 2.56 14.848 2.048 21.504-1.024 14.336-6.144 20.48-23.552 14.336-37.376l-69.632-153.6c63.488-10.24 124.416-31.744 180.224-62.976l111.104 138.752c5.632 6.656 13.824 10.752 22.016 10.752 6.144 0 12.288-2.048 17.408-6.144 12.288-9.728 14.336-27.648 4.608-39.936l-106.496-134.144z m0 0" p-id="3344"></path></svg>