<svg t="1696147714920" class="icon" viewBox="0 0 1024 1024" version="1.1" xmlns="http://www.w3.org/2000/svg" p-id="3189" width="16" height="16"><path d="M807.822222 748.088889c-85.333333 59.733333-187.733333 93.866667-295.822222 93.866667-105.244444 0-207.644444-31.288889-295.822222-93.866667C48.355556 631.466667 28.444444 500.622222 28.444444 500.622222s19.911111-130.844444 187.733334-247.466666c85.333333-59.733333 187.733333-93.866667 295.822222-93.866667 105.244444 0 207.644444 31.288889 295.822222 93.866667 159.288889 113.777778 187.733333 247.466667 187.733334 247.466666-34.133333 113.777778-105.244444 187.733333-187.733334 247.466667zM512 216.177778c-179.2 0-327.111111 108.088889-426.666667 284.444444 68.266667 164.977778 247.466667 284.444444 426.666667 284.444445 179.2 0 358.4-119.466667 426.666667-284.444445-68.266667-164.977778-247.466667-284.444444-426.666667-284.444444z m0 469.333333c-99.555556 0-182.044444-88.177778-182.044444-184.888889s82.488889-184.888889 182.044444-184.888889c99.555556 0 179.2 88.177778 179.2 184.888889s-79.644444 184.888889-179.2 184.888889z m0-310.044444c-62.577778 0-122.311111 62.577778-122.311111 125.155555 0 59.733333 59.733333 125.155556 122.311111 125.155556 62.577778 0 119.466667-62.577778 122.311111-125.155556 2.844444-62.577778-59.733333-125.155556-122.311111-125.155555z" p-id="3190"></path></svg>