<svg t="1695869009823" class="icon" viewBox="0 0 1024 1024" version="1.1" xmlns="http://www.w3.org/2000/svg" p-id="4071" width="16" height="16"><path d="M977.547636 837.818182H826.274909v151.272727a34.909091 34.909091 0 1 1-69.818182 0V837.818182h-151.272727a34.909091 34.909091 0 1 1 0-69.818182H756.456727v-151.272727a34.909091 34.909091 0 0 1 69.818182 0V768h151.272727a34.909091 34.909091 0 0 1 0 69.818182zM500.456727 605.090909c-6.423273 7.121455-12.846545 0-23.272727 0-174.871273 0-395.426909 167.68-395.426909 366.289455a34.909091 34.909091 0 0 1-35.095273 34.699636 34.909091 34.909091 0 0 1-35.118545-34.699636c0-164.119273 137.099636-350.161455 330.402909-408.994909C249.530182 510.789818 197.911273 414.952727 197.911273 302.545455 197.911273 136.471273 332.474182 0 500.456727 0s302.545455 136.471273 302.545455 302.545455c0 165.189818-135.796364 301.102545-302.545455 302.545454z m0-535.272727c-129.024 0-232.727273 105.169455-232.727272 232.727273s103.703273 232.727273 232.727272 232.727272 232.727273-105.169455 232.727273-232.727272S629.480727 69.818182 500.456727 69.818182z" p-id="4072"></path></svg>