<svg t="1695869212702" class="icon" viewBox="0 0 1024 1024" version="1.1" xmlns="http://www.w3.org/2000/svg" p-id="4225" width="16" height="16"><path d="M332.329412 530.070588C266.070588 487.905882 223.905882 415.623529 223.905882 331.294118c0-132.517647 108.423529-240.941176 240.941177-240.941177s240.941176 108.423529 240.941176 240.941177-108.423529 240.941176-240.941176 240.941176c-198.776471 0-361.411765 162.635294-361.411765 361.411765 0 18.070588-12.047059 30.117647-30.117647 30.117647s-30.117647-12.047059-30.117647-30.117647c0-186.729412 120.470588-343.341176 289.129412-403.576471zM464.847059 512c102.4 0 180.705882-78.305882 180.705882-180.705882s-78.305882-180.705882-180.705882-180.705883-180.705882 78.305882-180.705883 180.705883 78.305882 180.705882 180.705883 180.705882z m373.458823 289.129412c36.141176-36.141176 36.141176-90.352941 0-126.494118-36.141176-36.141176-90.352941-36.141176-126.494117 0-12.047059 12.047059-30.117647 12.047059-42.164706 0-36.141176-36.141176-90.352941-36.141176-126.494118 0-36.141176 36.141176-36.141176 90.352941 0 126.494118l150.588235 150.588235 144.564706-150.588235z m42.164706-168.658824c60.235294 60.235294 60.235294 156.611765 0 210.82353l-168.658823 168.658823c-12.047059 12.047059-30.117647 12.047059-42.164706 0L500.988235 843.294118c-60.235294-60.235294-60.235294-156.611765 0-210.82353 54.211765-54.211765 132.517647-60.235294 192.752941-18.070588 54.211765-42.164706 138.541176-36.141176 186.729412 18.070588zM43.2 0" p-id="4226"></path></svg>