<svg t="1695344049719" class="icon" viewBox="0 0 1024 1024" version="1.1" xmlns="http://www.w3.org/2000/svg" p-id="4893" width="16" height="16"><path d="M495.466219 1024C256.335982 1024 86.993753 856.408725 86.993753 625.658051c0-122.566753 72.664575-254.638684 75.791278-260.016612 6.378474-11.25613 18.885285-17.634604 31.767302-16.133787 12.882016 1.750954 23.137601 11.131062 26.764577 23.512806 0.250136 0.625341 19.88583 74.915801 45.649862 116.063211 17.2594 27.765122 35.019072 47.15068 54.779834 60.908172-13.382288-58.782014-23.637874-147.205172-7.003814-237.754488C360.392654 63.226735 554.248234 3.569244 562.502729 1.19295c10.63079-3.001635 22.137056-0.250136 30.266484 7.25395s11.756403 18.760217 9.505177 29.641144c-0.250136 1.750954-32.392642 176.095907 35.519345 324.55176 6.128338 13.507356 14.758038 29.140871 24.013078 44.899454 2.62643-22.512261 7.003814-44.899454 13.132152-66.786374 25.013623-88.047953 89.423703-118.189369 92.175201-119.314983 10.755858-4.752588 23.26267-3.251771 32.517711 4.00218 9.380109 7.253951 13.757493 19.26049 11.631334 31.016893-0.375204 2.251226-9.380109 62.158854 41.272479 147.205172C898.185552 480.579037 911.192636 530.231079 911.192636 625.908188c-0.125068 230.625605-174.720158 398.091812-415.726417 398.091812zM188.799199 475.451244C170.414186 522.351788 160.783942 572.253966 160.658873 622.656417c0 187.85231 138.450404 324.301624 334.932414 324.301624 197.982827 0 341.686092-136.324246 341.686092-324.301624 0-81.294275-9.880381-118.689642-48.276292-183.349858-25.638964-43.1485-38.395912-81.794548-44.149045-112.81144-7.003814 11.506267-12.381743 23.88801-15.883651 36.770026-18.760217 66.161033-13.882561 143.828333-13.882561 144.70381 0.875477 13.757493-7.504087 26.514441-20.511171 31.267029-13.007084 4.62752-27.389917 0-35.269208-11.256131-2.376294-3.251771-57.031061-81.544411-81.044139-134.448224-49.902178-109.309533-49.276838-227.623971-44.149045-295.661026-50.777655 29.641143-128.695091 96.427517-153.708714 231.876287-24.263214 132.07193 23.012533 270.14713 23.387737 271.397811 4.127248 10.755858 2.00109 23.012533-5.628065 31.767301-7.504087 8.754768-19.135422 12.506812-30.266484 9.755313-3.752043-1.000545-96.552585-23.637874-152.583101-113.061576-10.255585-17.2594-19.135422-35.394277-26.514441-54.154495z m0 0"  p-id="4894"></path></svg>