<svg t="1702886136872" class="icon" viewBox="0 0 1024 1024" version="1.1" xmlns="http://www.w3.org/2000/svg" p-id="19316" width="16" height="16"><path d="M906.5 522.2c-33.7-37.9-189.2-42.6-223.6-43.9-59.3-2.2-139-2.6-230.3-1-76.8 1.3-159 3.9-225.4 7.1-106.8 5.2-112.7 8.6-117.9 11.6-6.8 3.9-10.8 11.1-10.6 18.7 0.5 81.7 18.2 160.2 51.1 227 35.8 72.6 87.6 126.2 149.9 155.1 55.9 25.9 118.5 31.4 161.3 31.4h0.5c55-0.1 108.9-9.3 148-25.3 66.1-27.1 121.4-80.5 160-154.5 2.2-4.2 4.3-8.4 6.3-12.6 2.7 0.6 5.6 1 8.5 1 27.4 0 67.3-24.6 95.6-47.7 23.1-18.9 48.1-61.7 48.1-95.8 0-24.4 0.1-46.7-21.5-71.1zM745.9 703.1c-3.9 9.1-8.1 17.9-12.5 26.5-34 65.3-82.2 112.2-139.3 135.6-34.4 14.1-82.7 22.2-132.6 22.3h-0.5c-54.5 0-105.7-9.8-144.1-27.6-53.7-24.9-98.8-72-130.5-136.1-27.6-56-44-123.8-46.6-192.7 42.5-4.3 170.6-10.5 316.1-12.9 168.6-2.7 285.2 1.2 327.3 5.4 3.1 27.9-15.5 140.2-37.3 179.5z m47.4-9c19.1-52.7 29.8-111.1 30.9-169.8 2.8-0.2 5.8-0.3 9.1-0.3 11.6 0 50.5 17.3 50.6 63.3 0 64.2-77.4 102.6-90.6 106.8zM257.9 199.4c0.2 0 19.7 1.1 31.8 16.1 8.4 10.4 11.9 25.9 10.5 46.1-1.3 18.1-8.6 25.7-18.7 36.3-10.3 10.8-23.1 24.3-26.2 48.5-2.5 19.1 1.5 41.5 12.7 71 4.6 12 17.5 17.3 28.2 11.6l1.9-1c8.2-4.3 11.8-14.9 8.2-24-9-22.9-12.8-40.2-11.3-51.6 1.1-8.9 5.5-13.8 14.4-23.1 11.9-12.5 28.3-29.7 30.8-64.3 2.4-32.8-4.6-59.4-20.8-79-13.8-16.7-31-24.2-43.4-27.5-9.3-2.5-18.9 2.5-22.9 11.9l-5 11.5c-3.9 8.1 1.5 17.5 9.8 17.5zM470.7 287.2c-11.2 12.6-25.2 28.2-25.2 53.7 0 20.5 9.1 43.7 29.4 73.6 6 8.8 17.5 10.4 25.3 3.5l2.5-2.3c7.9-7 9.4-19.5 3.4-28.5-16.8-25.1-20.6-38.9-20.6-46.2 0-7.1 3.8-12.1 13.9-23.3 12.2-13.7 29-32.4 31.4-65.6 2-28.2-0.6-67.8-24.5-96.4-0.2-0.2-0.3-0.4-0.5-0.5-13.1-15.4-36.7-8.6-41.3 11.7-0.9 4.1 0.7 8.4 4 10.6 2.4 1.7 5.4 4.1 8.3 7.6 11.3 13.5 16.2 35.5 14.2 63.5-1.4 17.4-9.8 26.8-20.3 38.6zM674.9 419.4c8.5-6.5 11.1-19.1 5.8-28.8-12.4-22.9-17-41.1-13.8-54.4 3.2-13.3 14.8-23.2 27-33.7 13.9-11.9 29.6-25.4 33.7-46.7 5.9-30.2 1.9-56.3-11.7-77.7-11.7-18.3-28.3-29.1-41.9-35.4-12-5.5-25.6 2.8-27.5 16.8-1.4 9.9 3.7 19.5 12.2 23.4 8.2 3.7 18.1 10 24.4 20 7.2 11.3 8.9 25.6 5.4 43.8-1.1 5.9-10.4 13.8-19.4 21.5-15.2 13.1-34.2 29.4-40.9 56.7-6.1 25-0.2 53.8 17.9 87.6 6 11 19.2 14.2 28.8 6.9z"  p-id="19317"></path></svg>