<svg t="1695193220542" class="icon" viewBox="0 0 1024 1024" version="1.1" xmlns="http://www.w3.org/2000/svg" p-id="4330" id="mx_n_1695193220544" width="16" height="16"><path d="M579.490909 546.909091zM572.509091 544.581818v-2.327273 2.327273zM512 116.363636C293.236364 116.363636 116.363636 293.236364 116.363636 512s176.872727 395.636364 395.636364 395.636364 395.636364-176.872727 395.636364-395.636364S730.763636 116.363636 512 116.363636z m-132.654545 288.581819h20.945454c0 2.327273-4.654545 2.327273-6.981818 2.327272h-6.981818c-2.327273 0-4.654545 0-6.981818-2.327272 0 2.327273 0 2.327273 0 0z m-16.29091 2.327272c4.654545 0 9.309091 0 11.636364-2.327272h2.327273c-6.981818 0-13.963636 2.327273-23.272727 2.327272h9.30909z m-34.90909 4.654546c4.654545 0 6.981818 0 11.636363-2.327273-2.327273 2.327273-6.981818 2.327273-11.636363 2.327273z m-6.981819 2.327272c-9.309091 2.327273-16.290909 4.654545-25.6 6.981819V418.909091c9.309091-2.327273 18.618182-4.654545 25.6-4.654546z m200.145455 76.8l-11.636364 2.327273-2.327272 2.327273-2.327273 4.654545v4.654546l2.327273-4.654546v-2.327272l2.327272 2.327272 2.327273-2.327272 2.327273 2.327272-2.327273-2.327272 2.327273 2.327272 2.327272 2.327273v2.327273l-2.327272 2.327273-2.327273 4.654545h-2.327273l2.327273 2.327273 2.327273 2.327272-4.654546 9.309091-4.654545 9.309091v2.327273l-2.327273 6.981818v4.654546h-2.327273l-2.327272-2.327273V553.890909l-2.327273 2.327273v2.327273l2.327273-2.327273v-4.654546l2.327272 2.327273v2.327273l2.327273 2.327273v4.654545l-2.327273 2.327273-2.327272 2.327272 2.327272 2.327273v4.654546-2.327273l-2.327272 4.654545 2.327272 2.327273h-2.327272l-9.309091 2.327273v-11.636364l2.327272-4.654545v-4.654546H488.727273v-4.654545 4.654545h-2.327273V558.545455l2.327273-2.327273h2.327272l2.327273-2.327273v-6.981818h2.327273l2.327273-4.654546v-2.327272l-2.327273-2.327273-2.327273 2.327273h-2.327273V535.272727l-2.327272 2.327273-2.327273 6.981818-2.327273 9.309091v4.654546l-4.654545 2.327272v4.654546h2.327273v4.654545l4.654545 2.327273h-2.327273l2.327273 4.654545-4.654545 2.327273v4.654546l2.327272 2.327272-4.654545 4.654546v-4.654546l-2.327273-2.327272h-4.654545 2.327272V581.818182v2.327273l-2.327272 2.327272v-2.327272h-2.327273V577.163636v4.654546l-4.654546 4.654545-2.327272 2.327273v11.636364h2.327272l2.327273-2.327273v4.654545l-2.327273-2.327272h-2.327272l-2.327273 4.654545v-2.327273 2.327273-2.327273l-2.327273 2.327273v2.327273l-2.327272 2.327273-2.327273 4.654545v2.327273l-2.327273 2.327272v4.654546h2.327273v-2.327273l4.654545-4.654545v-2.327273 4.654545l-2.327272 2.327273-2.327273 4.654546h2.327273v2.327272h-4.654546V635.345455v-2.327273l-2.327273 2.327273-2.327272-2.327273V640l-2.327273 4.654545v2.327273l-2.327273 2.327273-2.327273 4.654545v4.654546h2.327273l-2.327273 2.327273v2.327272l-2.327272 4.654546-4.654546 9.309091v2.327272l-4.654545 4.654546v2.327273l-2.327273 2.327272h2.327273v2.327273l-2.327273 2.327273-9.309091 4.654545v11.636364l-4.654545 2.327273 2.327272 2.327272-2.327272 4.654546h-2.327273v2.327272l-4.654545 2.327273v2.327273l-2.327273 4.654545-2.327273 4.654546-2.327273 4.654545-2.327272 2.327273-2.327273 2.327273-4.654546 2.327272h-2.327272v2.327273l2.327272 2.327273h-4.654545l-2.327273 2.327273h-2.327272l-2.327273 2.327272H372.363636v4.654546h-2.327272l-9.309091 2.327273-4.654546 2.327272h-2.327272l-2.327273 2.327273h-4.654546l2.327273-2.327273h-2.327273l-2.327272 2.327273h-2.327273l-2.327273 2.327273h-6.981818l-4.654545 2.327272h-6.981819l-2.327272 2.327273h-25.6l-9.309091-2.327273h-2.327273l-11.636364-4.654545-6.981818-9.309091-6.981818-2.327273v-4.654545l-4.654545-2.327273-6.981819-2.327273-4.654545-4.654545-2.327273 2.327273v-2.327273h4.654546l-4.654546-2.327273v-2.327272l-2.327273-4.654546v-2.327273l4.654546-6.981818V721.454545h2.327273l4.654545-2.327272h2.327273l2.327273-2.327273h-2.327273H256l2.327273-4.654545h2.327272l6.981819-2.327273 6.981818-4.654546v-2.327272h2.327273v2.327272l2.327272-2.327272V698.181818h2.327273l2.327273-2.327273h2.327272l2.327273-4.654545 16.290909-16.290909 2.327273-4.654546 4.654545-6.981818 2.327273-4.654545 2.327273-2.327273 2.327273-4.654545 4.654545-2.327273 2.327273-4.654546 2.327273-2.327272v-2.327273h2.327272v2.327273h2.327273l2.327273-4.654546v-4.654545l2.327272-2.327273v2.327273l2.327273-2.327273 2.327273-2.327273v-4.654545 2.327273l4.654545-2.327273 2.327273-6.981818v-2.327273l2.327273-4.654545 2.327273-2.327273 2.327272-2.327273v2.327273l44.218182-69.818182 2.327273-4.654545h-2.327273l2.327273-2.327273v-2.327273l2.327273-4.654545h2.327272v-2.327273l2.327273-2.327273v2.327273l2.327273-2.327273v-4.654545l9.309091-9.309091-11.636364-2.327273v-2.327273l2.327273-2.327272v-2.327273l2.327272-4.654546h-2.327272v2.327273l-2.327273-2.327273V488.727273c-4.654545 0-6.981818 0-11.636364 2.327272-2.327273 0-6.981818 0-9.309091 2.327273-2.327273 2.327273-4.654545 2.327273-6.981818 2.327273-6.981818 2.327273 0 2.327273-4.654545 4.654545-2.327273 0-4.654545 2.327273-6.981818 4.654546-2.327273 2.327273-6.981818 4.654545-11.636364 4.654545H349.090909c2.327273 0 4.654545-2.327273 6.981818-2.327272 2.327273 0 4.654545 0 6.981818-2.327273-11.636364 0-32.581818 2.327273-30.254545 2.327273-2.327273-2.327273-4.654545-2.327273-6.981818 0 0 2.327273 0 2.327273-4.654546 2.327272 2.327273 0 2.327273-2.327273 4.654546-2.327272-4.654545 0-6.981818 0-9.309091 2.327272-2.327273 2.327273-4.654545 0-2.327273 0h-2.327273c-2.327273 2.327273-2.327273 4.654545-4.654545 4.654546h-6.981818c-2.327273 0-4.654545 0-6.981818 2.327272 0 0-2.327273 0-2.327273 2.327273-2.327273-2.327273-9.309091-4.654545-9.309091-4.654545-2.327273-2.327273-6.981818-4.654545-6.981818-9.309091 0 0-2.327273-4.654545-4.654546-6.981818 0-2.327273-4.654545-9.309091-6.981818-9.309091 0-2.327273-2.327273-6.981818-2.327273-6.981818-4.654545-4.654545-4.654545-13.963636-6.981818-18.618182-2.327273-2.327273-2.327273-6.981818-2.327272-11.636364h-2.327273c0-2.327273 0-9.309091 2.327273-11.636364v-9.30909c0-2.327273-2.327273-6.981818-2.327273-9.309091 0-4.654545 0-9.309091 4.654545-11.636364 0 0 2.327273 0 2.327273 4.654545 0 2.327273 2.327273 2.327273 4.654545 2.327273 4.654545 0 6.981818 0 11.636364-2.327273h2.327273c2.327273 0 4.654545 2.327273 6.981818 0 2.327273-2.327273 4.654545-2.327273 6.981818-2.327272h2.327273c-2.327273 2.327273-6.981818 6.981818-9.309091 6.981818-2.327273 0-4.654545 2.327273-4.654545 2.327273 2.327273 0 4.654545 0 6.981818-2.327273v2.327273c6.981818 0 11.636364 0 18.618182-2.327273 6.981818 0 16.290909-2.327273 23.272727-2.327273 13.963636 0 25.6-4.654545 37.236363-6.981818 9.309091-2.327273 41.890909-9.309091 48.872728-9.309091h4.654545c0-2.327273 2.327273-2.327273 4.654546-2.327273v2.327273h2.327272l2.327273-2.327273h9.309091c0-2.327273 0-4.654545 2.327273-4.654545 0 0-2.327273 0-2.327273 2.327273v-4.654546c0 2.327273 2.327273 2.327273 2.327273 2.327273h4.654545v-4.654546l2.327273-2.327272 2.327273-2.327273h-2.327273v-2.327273l2.327273-2.327272v-4.654546h-2.327273V372.363636H442.181818v-2.327272l2.327273-4.654546-2.327273 2.327273V360.727273l2.327273-2.327273V349.090909l2.327273-4.654545-2.327273-9.309091v-11.636364l-2.327273-4.654545-2.327273-20.945455-2.327272-2.327273v-2.327272l-2.327273-2.327273 2.327273-4.654546h-2.327273v-4.654545l-6.981818-2.327273v-6.981818l-2.327273-6.981818-2.327273-2.327273 2.327273-4.654545-6.981818-2.327273 2.327273-2.327273v-2.327272H418.909091l-2.327273-4.654546-2.327273-2.327273v-4.654545l2.327273-2.327273V232.727273h2.327273l2.327273-2.327273h2.327272l2.327273-2.327273h4.654546v-2.327272h-2.327273H449.163636l4.654546 2.327272 2.327273-2.327272h2.327272l4.654546 2.327272h2.327272v-2.327272H472.436364l4.654545 2.327272 4.654546 2.327273h6.981818l4.654545 2.327273 6.981818 4.654545 2.327273 2.327273h2.327273l2.327273 2.327273 4.654545 2.327272 2.327273 2.327273v4.654546l6.981818 4.654545 2.327273 4.654545 4.654545 4.654546 2.327273 4.654545 2.327273-2.327272 2.327272 2.327272 2.327273 4.654546h2.327273l2.327272 4.654545 2.327273 4.654546 2.327273 2.327272h2.327273v2.327273l2.327272 2.327273v2.327273l2.327273 2.327272v2.327273l2.327273 4.654546-2.327273 2.327272h2.327273l2.327273 4.654546v13.963636h2.327272l-2.327272 6.981818v6.981818l-2.327273 2.327273v4.654546l2.327273 2.327272-2.327273 4.654546-2.327273 2.327273 2.327273 2.327272-6.981818 9.309091 2.327272 4.654546v4.654545h-2.327272v9.309091l4.654545-2.327273h-2.327273 2.327273c2.327273 2.327273 4.654545 0 4.654546 0 2.327273 0 4.654545-2.327273 4.654545-2.327272h4.654545v-2.327273h2.327273c2.327273 0 2.327273 0 2.327273-2.327273 4.654545-2.327273 9.309091 0 13.963636-2.327273 2.327273 0 6.981818-4.654545 9.309091-6.981818 2.327273 0 2.327273-2.327273 4.654546-2.327273h-6.981819l-2.327272-4.654545h2.327272c0-2.327273 2.327273-4.654545 2.327273-4.654545h4.654546v-2.327273c2.327273 0 2.327273 0 2.327272 2.327273 0 0 2.327273 0 2.327273-2.327273s2.327273-2.327273 2.327273-4.654546v4.654546c2.327273 0 2.327273 0 4.654545-2.327273l2.327273-2.327273H621.381818c0-2.327273 0-2.327273 2.327273-2.327272 2.327273-2.327273 4.654545-2.327273 4.654545-2.327273h2.327273s4.654545 2.327273 4.654546 0c0 0 2.327273-2.327273 4.654545-2.327273l-2.327273-2.327273-2.327272 2.327273c-2.327273 0-4.654545-2.327273-2.327273-2.327273 2.327273-2.327273 4.654545-2.327273 6.981818-2.327272 0 0 0-2.327273 2.327273-2.327273h4.654545s2.327273 2.327273 4.654546 2.327273c0 0 4.654545-6.981818 6.981818-6.981818 2.327273 0 2.327273 2.327273 2.327273 2.327272v2.327273c2.327273-2.327273 2.327273 0 4.654545 0v2.327273c2.327273 0 2.327273 0 2.327273-2.327273 0 0 2.327273 0 2.327272-2.327273s2.327273-2.327273 4.654546 0l2.327273 2.327273c2.327273 0 2.327273 0 4.654545 2.327273h4.654546s0-2.327273 2.327272-2.327273c0 2.327273 0 2.327273 2.327273 2.327273l2.327273-2.327273c2.327273 0 2.327273 2.327273 2.327272 2.327273s0 2.327273 2.327273 0c0 0 4.654545 2.327273 4.654546 4.654545s0 2.327273 2.327272 4.654546h2.327273c2.327273 0 2.327273 0 2.327273-2.327273s4.654545-2.327273 4.654545-2.327273l4.654546-4.654545h2.327272v9.309091s2.327273 2.327273 0 2.327272h2.327273v4.654546c0-2.327273 2.327273-4.654545 2.327273-6.981818l2.327273-4.654546s2.327273 0 2.327272 2.327273c0-2.327273 2.327273-6.981818 4.654546-6.981818 0-2.327273 2.327273 0 4.654545-2.327273l2.327273-2.327273 2.327273-2.327272 2.327272 2.327272v4.654546l2.327273-2.327273c0 4.654545 2.327273 2.327273 4.654546 4.654545 0 0-2.327273 2.327273-2.327273 4.654546 0 0 2.327273 2.327273 0 4.654545v2.327273l2.327273-2.327273s2.327273 0 2.327272 2.327273 2.327273 2.327273 0 4.654546c-2.327273-2.327273-2.327273 0-4.654545 0 0 2.327273-2.327273 2.327273-2.327273 4.654545v-2.327273-4.654545c-2.327273 0-2.327273 2.327273-2.327273 6.981818-2.327273-2.327273-2.327273-2.327273-2.327272 0v2.327273l-2.327273 2.327272h2.327273c2.327273 0 4.654545 0 4.654545 2.327273v2.327273c0-2.327273 2.327273-4.654545 2.327273-6.981818h2.327273l-2.327273-2.327273h2.327273c2.327273 0 2.327273 0 2.327272 2.327273s0 2.327273 2.327273 4.654545c2.327273 0 2.327273 2.327273 2.327273 2.327273v4.654545h2.327273v2.327273c0 2.327273 2.327273 4.654545 0 4.654546l-2.327273 2.327272c-2.327273 2.327273 4.654545 2.327273 4.654545 2.327273v2.327273c-2.327273 2.327273 2.327273 2.327273 0 4.654545 13.963636 44.218182-6.981818 62.836364-9.309091 62.836364l-2.327272 2.327273h-4.654546c0 2.327273-11.636364 11.636364-13.963636 11.636363v-6.981818 2.327273c-2.327273 0-4.654545 2.327273-2.327273 4.654545v2.327273l-2.327273 2.327273c0-2.327273-2.327273-2.327273-2.327272-4.654546l-2.327273-2.327273s-2.327273 6.981818-2.327273 4.654546v2.327273c0-2.327273-2.327273-9.309091-2.327273-11.636364-2.327273-2.327273-2.327273 9.309091-4.654545 9.309091l-4.654545-4.654546c0-2.327273-4.654545-9.309091-4.654546-9.30909v6.981818h-2.327273v-4.654546s0 2.327273-2.327272 0c0-2.327273-4.654545-4.654545-4.654546-2.327272v6.981818c-2.327273-2.327273-2.327273-2.327273-2.327273-4.654546-2.327273 0-6.981818-2.327273-6.981818-2.327272l-2.327272-2.327273v2.327273h-2.327273c0-2.327273-4.654545-2.327273-4.654546-2.327273s2.327273-2.327273 0-2.327273l-2.327272 2.327273h-4.654546c-2.327273 0-2.327273 2.327273 0 2.327273h-4.654545c0 2.327273 0 2.327273-2.327273 2.327272 0 0-2.327273-2.327273-2.327273-4.654545-2.327273 0-4.654545 2.327273-4.654545 2.327273H651.636364c-2.327273 0-4.654545 0-4.654546-2.327273l-6.981818 4.654545c0-2.327273-2.327273-2.327273-2.327273-2.327272v4.654545c-4.654545 0-9.309091 4.654545-13.963636 6.981818h-6.981818H602.763636V465.454545h-2.327272c-2.327273 0-4.654545-2.327273-2.327273-2.327272h-4.654546c2.327273 0 2.327273 2.327273 4.654546 4.654545 0 2.327273-2.327273 2.327273-2.327273 2.327273l-4.654545-2.327273h-4.654546s-4.654545-2.327273-4.654545-4.654545h-2.327273c2.327273 0 4.654545 2.327273 4.654546 2.327272s-6.981818 4.654545-6.981819 2.327273h-2.327272c-2.327273 0-6.981818 2.327273-6.981819 2.327273-9.309091 0-4.654545 2.327273-16.290909 2.327273 0 2.327273 0 2.327273 2.327273 2.327272h-2.327273c0 2.327273 0 2.327273 2.327273 2.327273-2.327273 0-4.654545 0-6.981818 2.327273 0-2.327273 2.327273-2.327273 2.327273-4.654546-4.654545 2.327273-9.309091 2.327273-13.963637 2.327273v2.327273c9.309091 0 16.290909 2.327273 9.309091 2.327273h-2.327273c4.654545 0 0 2.327273 0 4.654545l-18.618181 2.327273-2.327273 2.327272z m27.927273-121.018181c2.327273-2.327273 4.654545-2.327273 6.981818-2.327273h-2.327273-2.327273 2.327273c0 4.654545-2.327273 4.654545-4.654545 2.327273 0 2.327273 2.327273 2.327273 0 0z m242.036363 325.818181v9.309091-4.654545 2.327273h-4.654545l-4.654546 18.618181v9.309091l-2.327272 2.327273v2.327273l-2.327273 2.327273v2.327272H770.327273l-2.327273 4.654546h-4.654545v4.654545-2.327273 4.654546h-2.327273v-2.327273V756.363636v-4.654545 2.327273h-2.327273V761.018182h-2.327273l-2.327272 2.327273h-2.327273v2.327272-4.654545 2.327273l-2.327273 4.654545v-9.309091 2.327273l-2.327273 4.654545v2.327273-11.636364l-2.327272-2.327272-2.327273-4.654546V744.727273H735.418182l-2.327273-2.327273h-4.654545l-2.327273-2.327273H721.454545v2.327273-4.654545l-2.327272-2.327273h-2.327273v-4.654546h-9.309091v-2.327272l-2.327273-2.327273h-2.327272l-4.654546-6.981818-6.981818-6.981818-6.981818-4.654546h-2.327273v-2.327273l-2.327273-2.327272-2.327272-2.327273H674.909091V698.181818h-4.654546v-2.327273L616.727273 651.636364v-2.327273h-2.327273l-2.327273-2.327273v2.327273h-2.327272l-2.327273-4.654546v-2.327272l-4.654546-4.654546h-2.327272l-9.309091-9.309091-4.654546-4.654545-2.327272-2.327273-2.327273-2.327273-2.327273-4.654545h-2.327273l-2.327272-2.327273h-2.327273v-2.327272h-2.327273l-2.327273-2.327273v-4.654546l-2.327272-2.327272h-2.327273l-2.327273-2.327273-2.327272-2.327273-2.327273-2.327273-2.327273-2.327272-2.327273-2.327273h-2.327272v-2.327273l-4.654546-4.654545h-2.327273 2.327273v-2.327273 2.327273H551.563636v2.327273h4.654546-2.327273V581.818182h2.327273l-2.327273-2.327273-2.327273-2.327273-2.327272-2.327272h-2.327273l-2.327273-2.327273v-2.327273h2.327273l-16.290909-11.636363h-4.654546l-2.327272-2.327273v-2.327273h-2.327273v-2.327273h11.636364l4.654545 2.327273h2.327273v2.327273h2.327272v2.327273H549.236364l2.327272-2.327273H558.545455V549.236364h2.327272v2.327272l2.327273 2.327273h11.636364-2.327273l-2.327273-2.327273v-2.327272h-2.327273 2.327273l2.327273 2.327272h2.327273-2.327273 2.327273l2.327272 2.327273h2.327273v2.327273h4.654546V549.236364h2.327272v-2.327273h2.327273v-2.327273l-2.327273-2.327273h2.327273v-2.327272h-2.327273v-2.327273h-2.327272V535.272727h2.327272l2.327273 2.327273h4.654545v2.327273l2.327273-2.327273h2.327273v2.327273h2.327273l-2.327273-2.327273V535.272727 542.254545h2.327273v-2.327272h-2.327273 2.327273l4.654545 2.327272h4.654546l2.327272 2.327273h2.327273l2.327273 2.327273v2.327273h4.654545l4.654546 2.327272h2.327272v-2.327272H635.345455l4.654545 2.327272v2.327273h2.327273l2.327272 2.327273h2.327273l6.981818 4.654545v2.327273l4.654546 2.327273h4.654545l4.654546 4.654545 9.309091 6.981818 2.327272 2.327273 2.327273 2.327273h2.327273v-2.327273h4.654545l2.327273 2.327273h2.327273v2.327273h13.963636v2.327272h4.654546v2.327273h2.327272v2.327273h4.654546v2.327272h4.654545v2.327273H730.763636l2.327273 2.327273h2.327273v2.327273l2.327273 2.327272h2.327272l2.327273 2.327273v2.327273h2.327273l2.327272 2.327273h2.327273v2.327272l2.327273 2.327273h9.309091l2.327273 2.327273v2.327272l2.327272 2.327273 4.654546 2.327273 2.327272 4.654545h2.327273v2.327273l4.654546 4.654546 4.654545 6.981818v4.654545l6.981818 48.872727v-2.327272 2.327272z" p-id="4331"></path></svg>