<svg t="1695702214906" class="icon" viewBox="0 0 1024 1024" version="1.1" xmlns="http://www.w3.org/2000/svg" p-id="7851" width="16" height="16"><path d="M830.578 227.556H657.067l74.903-70.163c11.378-11.378 11.378-29.393 0-39.823-5.689-5.689-13.274-8.533-21.807-8.533-7.585 0-15.17 2.844-21.807 8.533l-117.57 109.986H456.058L338.49 117.57c-5.689-5.689-13.274-8.533-21.808-8.533-7.585 0-15.17 2.844-21.807 8.533-11.378 11.378-11.378 29.393 0 39.823l74.904 70.163H193.422c-75.852 0-136.533 68.266-136.533 153.6v332.8c0 85.333 60.681 153.6 136.533 153.6h42.667c0 25.6 22.755 47.407 50.252 47.407s50.252-20.86 50.252-47.407h353.659c0 25.6 22.755 47.407 50.252 47.407s50.252-20.86 50.252-47.407h38.874c75.851 0 136.533-69.215 136.533-153.6v-332.8c0.948-85.334-59.733-153.6-135.585-153.6zM698.785 574.578L425.72 733.867C402.963 747.14 384 736.71 384 709.215V389.689c0-26.548 18.963-37.926 41.719-24.652l273.066 160.237c22.756 14.222 22.756 35.082 0 49.304z" p-id="7852"></path></svg>