<svg t="1695612507734" class="icon" viewBox="0 0 1024 1024" version="1.1" xmlns="http://www.w3.org/2000/svg" p-id="9115" width="16" height="16"><path d="M560.872727 498.036364L965.818182 76.8c-9.309091-4.654545-23.272727-6.981818-34.909091-6.981818H93.090909c-11.636364 0-25.6 2.327273-34.909091 6.981818l404.945455 421.236364c27.927273 25.6 69.818182 25.6 97.745454 0z"  p-id="9116"></path><path d="M1017.018182 125.672727L560.872727 595.781818c-27.927273 25.6-69.818182 25.6-97.745454 0L6.981818 125.672727C2.327273 137.309091 0 148.945455 0 162.909091v698.181818c0 51.2 41.890909 93.090909 93.090909 93.090909h837.818182c51.2 0 93.090909-41.890909 93.090909-93.090909V162.909091c0-13.963636-2.327273-25.6-6.981818-37.236364z"  p-id="9117"></path></svg>