<svg t="1702885992950" class="icon" viewBox="0 0 1024 1024" version="1.1" xmlns="http://www.w3.org/2000/svg" p-id="15632" width="16" height="16"><path d="M347.946667 261.333333a109.013333 109.013333 0 1 0 109.013333 109.013334 109.226667 109.226667 0 0 0-109.013333-109.013334z m0 175.36a66.346667 66.346667 0 1 1 66.346666-66.346666 66.56 66.56 0 0 1-66.346666 66.346666zM610.986667 479.36a109.013333 109.013333 0 1 0-109.013334-109.013333 109.013333 109.013333 0 0 0 109.013334 109.013333z m0-175.36a66.346667 66.346667 0 1 1-66.346667 66.346667 66.56 66.56 0 0 1 66.346667-66.346667zM347.946667 524.373333a109.226667 109.226667 0 1 0 109.013333 109.013334 109.44 109.44 0 0 0-109.013333-109.013334z m0 175.573334a66.56 66.56 0 1 1 66.346666-66.56 66.56 66.56 0 0 1-66.346666 66.56zM610.986667 742.613333a109.226667 109.226667 0 1 0-109.013334-109.226666 109.226667 109.226667 0 0 0 109.013334 109.226666z m0-175.573333a66.56 66.56 0 1 1-66.346667 66.346667 66.56 66.56 0 0 1 66.346667-66.346667z"  p-id="15633"></path><path d="M896 853.333333H656.853333a394.026667 394.026667 0 1 0-206.72 41.173334 21.333333 21.333333 0 0 0 7.253334 1.493333H896a21.333333 21.333333 0 0 0 0-42.666667zM128 501.973333A351.36 351.36 0 1 1 479.36 853.333333 351.573333 351.573333 0 0 1 128 501.973333z" p-id="15634"></path></svg>