<svg t="1702886680627" class="icon" viewBox="0 0 1024 1024" version="1.1" xmlns="http://www.w3.org/2000/svg" p-id="31908" width="16" height="16"><path d="M467.46875 497c-111.65625 0-202.5-90.84375-202.5-202.5s90.84375-202.5 202.5-202.5 202.5 90.84375 202.5 202.5-90.84375 202.5-202.5 202.5z m0-375C372.3125 122 294.875 199.4375 294.875 294.59375s77.4375 172.5 172.59375 172.5S640.0625 389.65625 640.0625 294.5 562.625 122 467.46875 122z" p-id="31909"></path><path d="M108.21875 932.09375c-8.25 0-14.90625-6.65625-14.90625-14.90625 0-302.71875 122.4375-449.90625 374.15625-449.90625 8.25 0 14.90625 6.65625 14.90625 14.90625s-6.65625 14.90625-14.90625 14.90625c-234.84375 0-344.25 133.5-344.25 420 0 8.34375-6.75 15-15 15zM901.8125 774.5H419.84375c-8.25 0-14.90625-6.65625-14.90625-14.90625s6.65625-14.90625 14.90625-14.90625h482.06250000000006c8.25 0 14.90625 6.65625 14.90625 14.90625 0 8.15625-6.65625 14.90625-15 14.90625z" p-id="31910"></path><path d="M713.1875 911.84375c-4.78125 0-9.46875-2.25-12.375-6.46875-4.6875-6.84375-2.90625-16.125 3.8437499999999996-20.8125L887 759.21875 695.75 634.25c-6.9375-4.5-8.90625-13.78125-4.3125-20.71875 4.5-6.9375 13.78125-8.8125 20.71875-4.3125l210 137.25c4.21875 2.71875 6.75 7.40625 6.75 12.375s-2.34375 9.65625-6.46875 12.46875L721.625 909.21875c-2.625 1.78125-5.53125 2.625-8.4375 2.625z" p-id="31911"></path></svg>