<svg t="1702886413008" class="icon" viewBox="0 0 1024 1024" version="1.1" xmlns="http://www.w3.org/2000/svg" p-id="26192" width="16" height="16"><path d="M268.2 959.1c-107.3 0-194.5-87.3-194.5-194.5S161 570.1 268.2 570.1s194.5 87.3 194.5 194.5-87.2 194.5-194.5 194.5z m0-357.1c-89.7 0-162.6 72.9-162.6 162.6 0 89.7 72.9 162.6 162.6 162.6s162.6-72.9 162.6-162.6c0-89.7-72.9-162.6-162.6-162.6z m32-238.2c-82.4 0-149.5-67-149.5-149.5s67-149.5 149.5-149.5c82.4 0 149.5 67 149.5 149.5s-67.1 149.5-149.5 149.5z m0-267c-64.8 0-117.5 52.7-117.5 117.5s52.7 117.5 117.5 117.5 117.5-52.7 117.5-117.5S365 96.8 300.2 96.8z m511.9 753.9c-76.2 0-138.2-62-138.2-138.2 0-76.2 62-138.2 138.2-138.2 76.2 0 138.2 62 138.2 138.2 0 76.2-62 138.2-138.2 138.2z m0-244.5c-58.6 0-106.3 47.7-106.3 106.3s47.7 106.3 106.3 106.3 106.3-47.7 106.3-106.3-47.7-106.3-106.3-106.3z m-260.7 9.4c-77.8 0-141.2-63.3-141.2-141.2s63.3-141.2 141.2-141.2 141.2 63.3 141.2 141.2-63.3 141.2-141.2 141.2z m0-250.4c-60.2 0-109.3 49-109.3 109.3 0 60.2 49 109.3 109.3 109.3s109.3-49 109.3-109.3-49-109.3-109.3-109.3z m233.2 0c-64 0-116.2-52.1-116.2-116.2s52.1-116.2 116.2-116.2S900.8 185 900.8 249s-52.1 116.2-116.2 116.2z m0-200.4c-46.4 0-84.2 37.8-84.2 84.2s37.8 84.2 84.2 84.2 84.2-37.8 84.2-84.2-37.7-84.2-84.2-84.2z" p-id="26193"></path><path d="M400.1 658.4c-4.1 0-8.2-1.6-11.3-4.7-6.2-6.2-6.2-16.3 0-22.6l65.4-65.4c6.2-6.2 16.3-6.2 22.6 0 6.2 6.2 6.2 16.3 0 22.6l-65.4 65.4c-3.2 3.2-7.3 4.7-11.3 4.7zM651 407.8c-4.1 0-8.2-1.6-11.3-4.7-6.2-6.2-6.2-16.3 0-22.6l64.2-64.2c6.2-6.2 16.3-6.2 22.6 0 6.2 6.2 6.2 16.3 0 22.6l-64.2 64.2c-3.1 3.2-7.2 4.7-11.3 4.7z m-184.6-12.1c-4.1 0-8.2-1.6-11.3-4.7l-69.3-69.3c-6.2-6.2-6.2-16.3 0-22.6 6.2-6.2 16.3-6.2 22.6 0l69.3 69.3c6.2 6.2 6.2 16.3 0 22.6-3.1 3.2-7.2 4.7-11.3 4.7z m250.7 250.7c-4.1 0-8.2-1.6-11.3-4.7L633 568.9c-6.2-6.2-6.2-16.3 0-22.6 6.2-6.2 16.3-6.2 22.6 0l72.8 72.8c6.2 6.2 6.2 16.3 0 22.6-3.2 3.1-7.2 4.7-11.3 4.7z" p-id="26194"></path></svg>