<svg t="1695362038545" class="icon" viewBox="0 0 1024 1024" version="1.1" xmlns="http://www.w3.org/2000/svg" p-id="5275" width="16" height="16"><path d="M697.344 821.248v184.32l244.736-228.864h-198.656c-25.6-1.024-46.08 19.456-46.08 44.544zM849.92 26.624H207.872c-50.688 0-92.16 40.96-92.16 92.16v795.136c0 50.688 40.96 92.16 92.16 92.16h397.312v-228.864c0-50.688 40.96-92.16 92.16-92.16H942.08V117.76c0-50.176-40.96-91.136-92.16-91.136z m-92.16 519.68H300.032c-25.6 0-46.08-20.48-46.08-46.08s20.48-46.08 46.08-46.08h459.264c25.6 0 46.08 20.48 46.08 46.08-1.536 25.6-22.016 46.08-47.616 46.08z m0-228.864H300.032c-25.6 0-46.08-20.48-46.08-46.08s20.48-46.08 46.08-46.08h459.264c25.6 0 46.08 20.48 46.08 46.08s-22.016 46.08-47.616 46.08z" p-id="5276"></path></svg>