<svg t="1695198599578" class="icon" viewBox="0 0 1024 1024" version="1.1" xmlns="http://www.w3.org/2000/svg" p-id="37603" width="16" height="16"><path d="M800 768H224a32 32 0 0 1-32-32v-256a32 32 0 0 1 32-32h64a32 32 0 1 1 0 64H256v192h512v-192h-32a32 32 0 0 1 0-64h64a32 32 0 0 1 32 32v256a32 32 0 0 1-32 32z m-256-402.72v242.752a32 32 0 0 1-64 0v-242.88l-41.28 41.28a32 32 0 0 1-45.12-45.12l94.08-94.08a31.936 31.936 0 0 1 19.808-10.88 31.968 31.968 0 0 1 27.232 8.96l96 96A32 32 0 0 1 608 416a32 32 0 0 1-22.72-9.28L544 365.28z" fill="#ffffff" p-id="37604"></path></svg>