<svg t="1695106849982" class="icon" viewBox="0 0 1024 1024" version="1.1" xmlns="http://www.w3.org/2000/svg" p-id="5188" width="16" height="16"><path d="M943.158 927.043c0-0.823 1.347-2.33 2.994-3.347 1.647-1.018 2.994-1.177 2.994-0.353s-1.347 2.329-2.994 3.347c-1.647 1.018-2.994 1.177-2.994 0.353zM64.09 912.468c-5.704-6.737-5.704-6.737 1.033-1.033 6.33 5.36 8.099 7.77 5.704 7.77-0.57 0-3.6-3.03-6.737-6.737z m906.015-12.372c0-0.823 1.348-2.33 2.994-3.347 1.647-1.018 2.995-1.177 2.995-0.354s-1.348 2.33-2.995 3.348c-1.646 1.018-2.994 1.176-2.994 0.353zM369.03 830.129c80.282-0.443 211.65-0.443 291.93 0 80.282 0.443 14.597 0.808-145.965 0.808s-226.247-0.365-145.965-0.808z m634.485-30.69c0-4.117 0.68-5.803 1.51-3.743 0.831 2.06 0.831 5.428 0 7.485-0.83 2.06-1.51 0.375-1.51-3.742z m0.946-221.568c0-116.098 0.371-163.594 0.827-105.544 0.452 58.048 0.452 153.038 0 211.088-0.456 58.048-0.827 10.555-0.827-105.544zM151.11 594.34c0-95.513 0.38-134.153 0.844-85.87 0.461 48.288 0.461 126.435 0 173.662-0.464 47.23-0.844 7.722-0.844-87.792z m182.239 68.366a2.832 2.832 0 0 1 3.994 0c1.096 1.099 0.198 1.997-1.997 1.997-2.195 0-3.093-0.898-1.997-1.997z m-56.389-18.962c-1.018-1.647-1.177-2.994-0.353-2.994s2.33 1.347 3.347 2.994c1.018 1.646 1.177 2.994 0.354 2.994s-2.33-1.348-3.348-2.994z m601.022-227.556c0-5.764 0.617-8.12 1.369-5.24 0.754 2.884 0.754 7.6 0 10.48-0.752 2.883-1.369 0.524-1.369-5.24z m-859.78-19.213c-0.128-3.156 0.578-4.923 1.572-3.929 0.994 0.994 1.102 3.578 0.24 5.74-0.958 2.386-1.668 1.677-1.812-1.811z m149.472-33.185c2.05-2.47 4.4-4.49 5.224-4.49 0.824 0-0.18 2.02-2.23 4.49s-4.402 4.492-5.225 4.492c-0.824 0 0.18-2.021 2.23-4.492zM18.2 352.061c-0.128-3.155 0.578-4.922 1.572-3.928 0.994 0.994 1.102 3.578 0.24 5.74-0.958 2.386-1.668 1.677-1.812-1.812z m950.407-70.61c-1.018-1.647-1.177-2.995-0.353-2.995s2.33 1.348 3.347 2.994c1.018 1.647 1.177 2.994 0.354 2.994s-2.33-1.347-3.348-2.994z m-22.84-23.205c-3.72-4.75-3.616-4.854 1.133-1.132 4.988 3.913 6.572 6.371 4.108 6.371-0.62 0-2.98-2.356-5.24-5.24z m-85.45-35.682a2.832 2.832 0 0 1 3.995 0c1.096 1.1 0.198 1.997-1.997 1.997-2.195 0-3.093-0.898-1.997-1.997z m-688.154-3.009c35.89-2.168 79.357-2.296 79.35-0.233-0.002 1.233-21.228 1.997-47.163 1.691-25.938-0.305-40.421-0.958-32.187-1.458z m390.737 0.868c0-0.823 1.347-2.329 2.994-3.347 1.647-1.018 2.994-1.177 2.994-0.353s-1.347 2.33-2.994 3.347c-1.647 1.018-2.994 1.177-2.994 0.353z m-120.15-13.078c-3.721-4.749-3.617-4.853 1.132-1.132 4.988 3.914 6.572 6.372 4.108 6.372-0.62 0-2.98-2.357-5.24-5.24z m-213.698-6.737c-1.018-1.647-1.177-2.994-0.354-2.994s2.33 1.347 3.348 2.994c1.018 1.647 1.176 2.994 0.353 2.994s-2.33-1.347-3.347-2.994z m558.409 1.85c0-0.823 1.347-2.329 2.994-3.347 1.647-1.018 2.994-1.177 2.994-0.353s-1.347 2.33-2.994 3.347c-1.647 1.018-2.994 1.177-2.994 0.354z m-200.608-2.994c0-0.823 1.347-2.329 2.994-3.347 1.647-1.018 2.994-1.177 2.994-0.353s-1.347 2.33-2.994 3.347c-1.647 1.018-2.994 1.177-2.994 0.353z m-169.17-13.827c-1.018-1.646-1.176-2.994-0.353-2.994s2.33 1.348 3.347 2.994c1.018 1.647 1.177 2.995 0.354 2.995s-2.33-1.348-3.348-2.995z m193.123-7.132c0-0.823 1.347-2.33 2.994-3.347 1.647-1.018 2.994-1.177 2.994-0.353s-1.347 2.329-2.994 3.347c-1.647 1.018-2.994 1.177-2.994 0.353z m-217.076-13.827c-1.018-1.646-1.177-2.994-0.353-2.994s2.33 1.348 3.347 2.994c1.018 1.647 1.177 2.995 0.353 2.995s-2.329-1.348-3.347-2.995z m244.023-10.126c0-0.823 1.348-2.33 2.995-3.347 1.646-1.018 2.994-1.177 2.994-0.354s-1.348 2.33-2.994 3.348c-1.647 1.018-2.995 1.177-2.995 0.353zM369.778 143.72c-1.018-1.646-1.177-2.994-0.354-2.994s2.33 1.348 3.348 2.994c1.018 1.647 1.177 2.994 0.353 2.994s-2.33-1.347-3.347-2.994z m-181.146-2.994c0-2.195 0.898-3.093 1.997-1.997a2.832 2.832 0 0 1 0 3.994c-1.1 1.096-1.997 0.198-1.997-1.997z m473.076-7.132c0-0.823 1.347-2.33 2.994-3.347 1.647-1.018 2.994-1.177 2.994-0.354s-1.347 2.33-2.994 3.348c-1.647 1.018-2.994 1.176-2.994 0.353zM345.825 122.76c-1.018-1.647-1.177-2.994-0.354-2.994s2.33 1.347 3.348 2.994c1.018 1.647 1.176 2.994 0.353 2.994s-2.33-1.347-3.347-2.994z m339.836-10.126c0-0.823 1.347-2.33 2.994-3.347 1.647-1.018 2.994-1.177 2.994-0.354s-1.347 2.33-2.994 3.348c-1.647 1.018-2.994 1.176-2.994 0.353z m-363.79-10.833c-1.018-1.647-1.176-2.994-0.353-2.994s2.33 1.347 3.347 2.994c1.019 1.647 1.177 2.994 0.354 2.994s-2.33-1.347-3.348-2.994z m390.737-13.474c2.051-2.47 4.402-4.49 5.225-4.49 0.823 0-0.18 2.02-2.23 4.49s-4.402 4.492-5.225 4.492c-0.824 0 0.18-2.021 2.23-4.492z" fill="#ffffff" p-id="5189"></path><path d="M151.205 956.036C93.837 948.41 40.912 899.967 25.307 840.809c-3.156-11.959-4.12-66.458-4.572-258.066l-0.572-242.907 8.323-20.959c15.675-39.45 49.227-73.53 87.316-88.678 15.731-6.257 23.228-7.042 76.572-8.009 32.523-0.59 59.021-1.982 58.883-3.093-0.137-1.11-10.937-11.207-23.995-22.432-28.71-24.68-36.33-37.966-36.573-63.76-0.348-36.832 23.025-63.938 57.26-66.41 29.78-2.157 39.067 3.81 130.105 83.593l81.548 71.464 51.736 0.006 51.733 0.01 80.01-70.411c44.002-38.727 85.483-73.087 92.18-76.351 36.05-17.59 83.487 5.48 94.37 45.9 7.055 26.187-3.509 48.173-37.274 77.59l-24.986 21.774 54.21 1.79c29.818 0.983 60.275 3.465 67.685 5.513 21.768 6.018 46.116 20.486 65.312 38.807 22.037 21.037 34.9 40.867 42.546 65.608 5.582 18.067 5.842 29.441 5.893 257.497 0.057 259.012 0.45 252.248-16.75 287.4-10.43 21.327-39.483 50.29-62.847 62.655-36.798 19.477-20.3 18.744-409.92 18.295-194.32-0.222-357.352-0.94-362.292-1.6z m681.388-130.024c18.025-8.198 31.956-22.699 38.43-39.996 5.76-15.396 6.024-23.744 6.422-203.42l0.413-187.362-7.77-13.258c-9.694-16.543-18.743-23.744-39.68-31.58-16.25-6.077-20.047-6.14-326.863-5.359l-310.422 0.788-13.998 9.719c-9.671 6.715-16.408 14.656-21.812 25.698l-7.818 15.98 0.853 189.88c0.85 188.871 0.893 189.946 7.417 202.142 11.596 21.665 29.87 34.678 56.317 40.091 6.587 1.348 146.04 2.246 309.895 1.997 267.988-0.41 298.993-0.943 308.616-5.32zM670.786 663.777c-14.98-4.773-37.72-27.945-41.7-42.49-5.266-19.253-4.281-110.146 1.342-123.605 9.356-22.4 31.738-38.496 57.823-41.583 27.851-3.3 60.476 18.753 68.787 46.493 2.057 6.863 3.45 32.247 3.41 62.153-0.056 43.466-0.877 52.338-5.847 63.29-14.222 31.337-49.897 46.547-83.815 35.742z m-356.4-1.89c-25.55-5.135-44.94-23.486-52.577-49.763-3.779-12.994-4.611-26.923-3.824-63.859 0.994-46.568 1.138-47.445 10.07-61.886 12.88-20.815 32.564-32.457 53.936-31.894 32.13 0.848 57.913 18.25 68.638 46.329 4.273 11.192 4.946 21.737 4.081 63.94-0.928 45.391-1.713 51.82-7.716 63.093-13.462 25.285-44.277 39.732-72.608 34.04z" fill="#1296DB" p-id="5190"></path></svg>